<?xml version="1.0" standalone="no"?>
<!DOCTYPE svg PUBLIC "-//W3C//DTD SVG 20010904//EN"
 "http://www.w3.org/TR/2001/REC-SVG-20010904/DTD/svg10.dtd">
<svg version="1.0" xmlns="http://www.w3.org/2000/svg"
 width="22.000000pt" height="16.000000pt" viewBox="0 0 22.000000 16.000000"
 preserveAspectRatio="xMidYMid meet">

<g transform="translate(0.000000,16.000000) scale(0.100000,-0.100000)"
fill="#000000" stroke="none">
<path d="M0 145 c0 -12 19 -15 110 -15 91 0 110 3 110 15 0 12 -19 15 -110 15
-91 0 -110 -3 -110 -15z"/>
<path d="M0 85 c0 -13 18 -15 111 -15 84 0 110 3 107 13 -3 8 -37 13 -111 15
-91 2 -107 0 -107 -13z"/>
<path d="M3 18 c5 -18 209 -18 215 0 3 9 -23 12 -108 12 -85 0 -111 -3 -107
-12z"/>
</g>
</svg>
