<?xml version="1.0" standalone="no"?>
<!DOCTYPE svg PUBLIC "-//W3C//DTD SVG 20010904//EN"
 "http://www.w3.org/TR/2001/REC-SVG-20010904/DTD/svg10.dtd">
<svg version="1.0" xmlns="http://www.w3.org/2000/svg"
 width="415.000000pt" height="142.000000pt" viewBox="0 0 415.000000 142.000000"
 preserveAspectRatio="xMidYMid meet">

<g transform="translate(0.000000,142.000000) scale(0.100000,-0.100000)"
fill="#000000" stroke="none">
<path d="M189 1328 c-20 -11 -46 -38 -58 -59 -21 -37 -21 -43 -19 -567 l3
-529 29 -37 c54 -71 -100 -66 1953 -64 l1858 3 35 22 c19 12 44 37 55 55 19
32 20 51 20 558 0 512 -1 526 -21 560 -11 19 -35 45 -54 57 l-33 23 -1866 0
-1866 0 -36 -22z m1848 -345 c-2 -32 -3 -8 -3 52 0 61 1 87 3 58 2 -29 2 -78
0 -110z m503 50 c0 -60 -4 -103 -8 -96 -5 8 -13 9 -22 3 -48 -30 -104 6 -104
67 0 60 64 94 106 56 17 -15 18 -14 18 30 0 26 2 47 5 47 3 0 5 -48 5 -107z
m670 67 c0 -37 2 -40 19 -30 57 30 92 -6 90 -90 -1 -30 -4 -41 -6 -25 -9 76
-15 95 -34 106 -16 8 -26 7 -45 -6 -21 -13 -24 -23 -24 -70 0 -30 -4 -55 -10
-55 -6 0 -10 42 -10 105 0 63 4 105 10 105 6 0 10 -18 10 -40z m-2422 -15
c-10 -81 -83 -161 -141 -153 -18 2 -22 9 -19 36 5 62 47 121 107 148 52 23 58
19 53 -31z m572 30 c33 -17 55 -72 46 -111 -4 -14 -19 -37 -33 -50 -21 -20
-36 -24 -84 -24 l-59 0 0 100 0 100 50 0 c28 0 64 -7 80 -15z m1768 -36 l27
-1 -25 -7 c-20 -5 -26 -14 -28 -45 -5 -57 5 -84 31 -89 20 -4 19 -4 -4 -6 -32
-1 -39 13 -39 85 0 44 -3 54 -17 55 -17 1 -17 2 0 6 9 2 18 12 18 21 1 15 2
15 6 0 3 -11 15 -18 31 -19z m-1577 -18 c29 -23 31 -81 4 -111 -25 -28 -79
-27 -99 2 -53 75 26 165 95 109z m75 -54 l21 -62 21 58 c12 32 22 62 22 67 0
6 4 10 9 10 5 0 19 -30 32 -67 l22 -68 26 69 c14 38 26 65 28 59 5 -13 -41
-134 -52 -136 -4 -1 -18 25 -30 58 l-23 60 -16 -40 c-9 -21 -19 -49 -22 -62
-4 -13 -10 -23 -14 -23 -8 0 -36 67 -55 130 -15 52 11 6 31 -53z m254 63 c23
15 51 12 72 -7 14 -13 18 -29 16 -77 -1 -43 -2 -49 -5 -21 -6 65 -12 84 -34
95 -16 9 -26 8 -44 -4 -20 -13 -25 -26 -28 -73 -3 -50 -3 -47 -5 22 -1 44 2
75 6 68 5 -8 13 -9 22 -3z m317 -12 c48 -45 18 -128 -46 -128 -35 0 -71 40
-71 77 0 30 42 73 71 73 13 0 33 -10 46 -22z m151 10 c7 -7 12 -39 11 -77 0
-37 -3 -60 -6 -53 -4 10 -8 10 -18 2 -19 -16 -66 -8 -79 13 -18 28 4 52 53 55
33 3 41 7 41 22 0 28 -36 45 -66 31 -13 -6 -24 -7 -24 -2 0 21 69 28 88 9z
m422 -8 c47 -47 18 -130 -45 -130 -43 0 -69 30 -68 78 2 64 70 95 113 52z
m100 10 c23 15 51 12 72 -7 14 -12 18 -29 16 -77 l-1 -61 -6 63 c-8 79 -31
100 -78 67 -17 -12 -23 -28 -26 -73 -3 -48 -3 -45 -5 23 -1 44 2 75 6 68 5 -8
13 -9 22 -3z m600 -10 c11 -11 20 -29 20 -40 0 -18 -7 -20 -60 -20 -64 0 -72
-8 -40 -40 22 -22 42 -25 71 -10 11 6 19 7 19 1 0 -11 -25 -21 -56 -21 -58 0
-85 81 -42 127 26 28 61 30 88 3z m-2862 -150 c28 -11 41 -9 92 10 68 25 120
21 171 -13 54 -37 57 -50 21 -91 -67 -76 -63 -176 10 -242 40 -35 40 -37 29
-74 -16 -54 -85 -154 -116 -168 -35 -16 -59 -15 -115 5 -46 16 -52 16 -103 0
-29 -9 -66 -17 -80 -17 -93 0 -210 246 -192 404 3 33 15 76 25 96 23 46 81 98
118 106 15 3 32 7 37 8 12 3 58 -8 103 -24z m837 -310 c85 -198 83 -190 47
-190 -25 0 -31 6 -45 40 l-15 40 -80 0 -80 0 -16 -40 c-14 -34 -20 -40 -46
-40 l-30 0 14 33 c7 17 40 94 72 170 57 136 58 138 88 135 28 -3 33 -10 91
-148z m1070 138 c19 -9 24 -16 19 -32 -9 -30 -11 -31 -39 -18 -40 19 -99 15
-119 -7 -28 -31 -6 -57 65 -77 85 -24 109 -45 109 -98 0 -79 -73 -120 -174
-97 -62 14 -78 27 -69 59 6 26 10 26 43 7 50 -29 150 -13 150 24 0 16 -37 40
-80 51 -68 18 -97 36 -108 68 -14 41 -4 79 30 107 24 20 40 25 88 25 33 0 71
-5 85 -12z m155 -38 c0 -28 3 -30 35 -30 30 0 35 -3 35 -24 0 -21 -6 -25 -32
-28 l-33 -3 -3 -65 c-3 -76 6 -94 45 -95 21 0 29 -5 31 -22 3 -18 -2 -23 -20
-25 -89 -6 -108 16 -108 124 0 71 -2 80 -20 85 -13 3 -20 14 -20 29 0 17 6 24
20 24 16 0 20 7 20 30 0 25 4 30 25 30 21 0 25 -5 25 -30z m-1050 -46 c0 -14
2 -14 22 0 49 35 135 10 164 -46 23 -45 15 -130 -16 -163 -34 -37 -90 -49
-135 -31 l-35 15 0 -60 c0 -59 0 -59 -30 -59 l-30 0 0 180 0 180 30 0 c20 0
30 -5 30 -16z m310 2 c0 -12 5 -12 31 1 40 20 103 12 135 -18 53 -50 55 -146
4 -198 -41 -40 -108 -49 -147 -19 -9 7 -13 -5 -15 -49 -3 -55 -4 -58 -30 -61
l-28 -3 0 180 0 181 25 0 c15 0 25 -6 25 -14z m1046 -5 c45 -27 69 -94 55
-148 -20 -72 -89 -112 -162 -93 -79 22 -113 106 -77 194 25 61 121 85 184 47z
m170 4 c5 -13 8 -13 27 0 36 25 57 19 57 -15 0 -25 -4 -30 -24 -30 -40 0 -56
-34 -56 -122 l0 -78 -30 0 -30 0 0 130 0 130 25 0 c14 0 28 -7 31 -15z m320
-18 c26 -24 37 -43 41 -75 l6 -42 -97 0 c-101 0 -112 -6 -79 -42 19 -21 92
-25 111 -6 19 19 50 -15 32 -36 -18 -23 -81 -37 -117 -27 -79 23 -108 64 -101
143 11 108 126 157 204 85z"/>
<path d="M2442 1054 c-44 -31 -19 -114 35 -114 48 0 70 73 33 110 -24 24 -38
25 -68 4z"/>
<path d="M1250 1029 l0 -92 52 5 c38 4 57 12 70 28 20 24 24 80 8 110 -11 21
-60 40 -101 40 l-29 0 0 -91z"/>
<path d="M1470 1050 c-39 -39 -13 -110 41 -110 47 0 67 86 27 114 -30 21 -44
20 -68 -4z"/>
<path d="M2122 1055 c-42 -30 -21 -115 29 -115 22 0 59 34 59 55 0 19 -21 65
-31 65 -4 0 -13 2 -21 5 -7 3 -23 -2 -36 -10z"/>
<path d="M2266 984 c-8 -22 11 -44 38 -44 27 0 46 18 46 42 0 25 -75 26 -84 2z"/>
<path d="M2690 1050 c-39 -39 -15 -110 37 -110 27 0 53 31 53 63 0 29 -31 67
-55 67 -8 0 -24 -9 -35 -20z"/>
<path d="M3398 1058 c-8 -7 -18 -21 -21 -30 -6 -16 1 -18 48 -18 59 0 66 9 35
40 -23 23 -40 25 -62 8z"/>
<path d="M1331 635 c-12 -27 -24 -59 -27 -72 -6 -22 -4 -23 49 -23 l56 0 -13
38 c-8 20 -21 52 -29 71 l-15 34 -21 -48z"/>
<path d="M1645 595 c-51 -50 -20 -135 50 -135 42 0 65 29 65 82 0 72 -67 102
-115 53z"/>
<path d="M1967 608 c-58 -45 -32 -148 39 -148 66 0 98 87 49 135 -26 27 -62
32 -88 13z"/>
<path d="M2859 601 c-30 -24 -33 -89 -5 -120 48 -53 134 -4 122 69 -10 63 -70
89 -117 51z"/>
<path d="M3337 602 c-31 -34 -21 -42 48 -42 70 0 82 11 47 43 -25 22 -75 21
-95 -1z"/>
</g>
</svg>
