<?xml version="1.0" standalone="no"?>
<!DOCTYPE svg PUBLIC "-//W3C//DTD SVG 20010904//EN"
 "http://www.w3.org/TR/2001/REC-SVG-20010904/DTD/svg10.dtd">
<svg version="1.0" xmlns="http://www.w3.org/2000/svg"
 width="415.000000pt" height="142.000000pt" viewBox="0 0 415.000000 142.000000"
 preserveAspectRatio="xMidYMid meet">

<g transform="translate(0.000000,142.000000) scale(0.100000,-0.100000)"
fill="#000000" stroke="none">
<path d="M898 1340 c-719 -5 -727 -5 -755 -26 -15 -12 -36 -35 -47 -53 -17
-29 -18 -63 -18 -547 1 -575 -2 -552 72 -602 l33 -22 1896 2 c1878 3 1896 3
1923 23 15 11 36 36 47 56 20 36 21 50 21 543 0 484 -1 509 -20 545 -11 22
-34 48 -52 59 -33 20 -47 21 -1203 24 -644 2 -1497 1 -1897 -2z m859 -357 c-2
-32 -3 -8 -3 52 0 61 1 87 3 58 2 -29 2 -78 0 -110z m257 83 c29 19 71 10 91
-19 44 -63 -31 -148 -95 -107 -9 6 -17 5 -22 -3 -4 -7 -7 38 -6 98 1 61 3 89
5 63 4 -48 4 -48 27 -32z m153 -83 c-2 -32 -3 -8 -3 52 0 61 1 87 3 58 2 -29
2 -78 0 -110z m843 112 c0 -33 1 -34 26 -25 35 14 41 13 64 -10 15 -15 20 -33
20 -75 0 -76 -18 -70 -22 8 -3 60 -4 62 -31 65 -42 5 -57 -13 -57 -69 0 -26
-4 -51 -10 -54 -6 -4 -10 32 -10 100 0 68 4 104 10 100 6 -3 10 -22 10 -40z
m-1663 -159 c-3 -6 -10 1 -16 17 -10 25 -14 27 -70 27 -54 0 -59 -2 -65 -25
-4 -14 -11 -25 -16 -25 -11 0 -5 16 45 125 l37 80 45 -94 c24 -52 42 -99 40
-105z m343 184 c0 -5 -2 -10 -4 -10 -3 0 -8 5 -11 10 -3 6 -1 10 4 10 6 0 11
-4 11 -10z m-1211 -66 c188 -98 371 -206 371 -219 0 -6 -25 -35 -55 -65 l-55
-55 -203 203 c-111 111 -198 202 -193 202 5 0 66 -30 135 -66z m231 -359 c0
-6 -92 -102 -205 -215 l-205 -205 0 420 0 420 205 -205 c113 -113 205 -209
205 -215z m2211 385 c10 0 19 -4 19 -10 0 -5 -9 -10 -20 -10 -19 0 -21 -5 -18
-57 3 -51 6 -58 28 -65 23 -6 23 -7 -5 -5 -30 2 -30 3 -33 65 -2 50 -6 62 -20
62 -16 1 -16 2 1 14 9 7 18 19 18 27 1 8 3 7 6 -3 2 -10 13 -18 24 -18z
m-1459 -76 c-17 -38 -34 -70 -39 -71 -10 -4 -67 127 -59 134 4 5 16 -19 48
-97 10 -25 11 -24 30 20 11 25 24 56 29 69 5 13 12 21 15 18 3 -3 -8 -36 -24
-73z m150 53 c4 -7 8 -39 8 -72 0 -41 -3 -55 -10 -45 -5 8 -7 25 -3 38 5 22 3
23 -38 20 -39 -3 -44 -6 -44 -28 0 -22 4 -25 37 -24 21 1 35 -3 32 -7 -6 -10
-45 -12 -68 -3 -9 4 -16 18 -16 34 0 31 15 40 66 40 22 0 34 5 34 14 0 24 -28
39 -65 33 -40 -7 -46 -1 -12 13 26 11 69 4 79 -13z m300 0 c4 -7 8 -39 8 -72
0 -41 -3 -55 -10 -45 -5 8 -7 25 -3 38 5 22 3 23 -38 20 -39 -3 -44 -6 -44
-28 0 -22 4 -25 37 -24 21 1 35 -3 32 -7 -6 -10 -45 -12 -68 -3 -9 4 -16 18
-16 34 0 31 15 40 66 40 34 0 42 12 25 39 -6 10 -21 12 -50 8 -46 -6 -52 -1
-18 13 26 11 69 4 79 -13z m413 -2 c42 -41 34 -55 -35 -55 -64 0 -73 -9 -43
-42 18 -20 45 -23 74 -8 11 6 19 7 19 1 0 -25 -70 -28 -98 -3 -50 42 -20 128
46 131 7 1 24 -10 37 -24z m248 -7 c20 -24 22 -50 6 -81 -16 -29 -28 -37 -61
-37 -66 0 -93 89 -41 130 32 25 69 20 96 -12z m167 12 c15 -15 20 -33 20 -75
0 -76 -18 -70 -22 8 -3 61 -3 62 -34 65 -40 4 -57 -17 -65 -82 -6 -49 -6 -48
-8 22 0 46 3 71 9 67 5 -3 18 -1 27 4 27 16 51 13 73 -9z m538 -7 c6 -9 12
-25 12 -35 0 -15 -9 -18 -60 -18 -64 0 -72 -8 -40 -40 22 -22 60 -26 78 -8 8
8 12 8 12 1 0 -13 -23 -23 -56 -23 -35 0 -64 34 -64 74 0 64 80 97 118 49z
m-1591 -90 c-2 -21 -4 -4 -4 37 0 41 2 58 4 38 2 -21 2 -55 0 -75z m-748 -169
c69 -40 111 -73 111 -89 0 -14 -48 -50 -131 -98 l-46 -26 -57 58 -57 58 59 61
c33 34 63 62 68 62 4 0 28 -12 53 -26z m1531 -204 l0 -170 -30 0 -30 0 0 170
0 170 30 0 30 0 0 -170z m860 0 l0 -170 -25 0 -25 0 0 170 0 170 25 0 25 0 0
-170z m-1932 140 c46 -21 49 -26 27 -50 -15 -16 -18 -16 -56 3 -35 17 -46 18
-79 8 -54 -16 -80 -52 -80 -111 0 -58 26 -95 75 -109 68 -19 105 4 105 65 0
40 2 44 25 44 24 0 25 -2 25 -65 l0 -66 -42 -19 c-57 -26 -104 -25 -158 3 -62
31 -90 76 -90 144 0 30 6 66 14 81 43 83 142 114 234 72z m1788 -24 c26 -26
34 -42 34 -70 0 -82 -54 -126 -154 -126 l-56 0 0 -45 c0 -43 -1 -45 -30 -45
l-30 0 0 160 0 160 101 0 101 0 34 -34z m-2391 -87 c49 -49 49 -51 30 -65 -21
-15 -410 -241 -455 -264 -28 -14 -8 7 218 236 79 79 147 144 151 144 4 0 29
-23 56 -51z m885 38 c65 -33 89 -126 47 -188 -64 -95 -213 -63 -232 49 -17
103 93 186 185 139z m295 -3 c46 -21 69 -69 63 -128 -13 -114 -148 -153 -222
-65 -49 58 -28 166 37 194 42 19 82 18 122 -1z m277 2 c23 -12 27 -12 32 1 4
8 15 13 28 11 22 -3 23 -8 26 -108 4 -129 -2 -161 -34 -199 -30 -36 -90 -48
-150 -32 -59 16 -68 25 -55 49 10 19 12 19 54 4 65 -23 127 1 127 50 0 16 -4
18 -17 12 -10 -5 -42 -9 -71 -9 -48 0 -57 3 -83 33 -23 26 -29 42 -29 78 0 56
12 79 53 104 38 23 81 25 119 6z m480 -23 c20 -20 31 -44 35 -71 l6 -42 -97 0
c-53 0 -96 -4 -96 -9 0 -15 51 -51 72 -51 10 0 32 7 48 15 27 14 30 14 40 -6
13 -24 -6 -44 -52 -54 -96 -22 -183 62 -163 155 8 36 41 79 69 91 40 17 106 4
138 -28z m855 3 c21 -24 23 -37 23 -122 0 -94 0 -94 -25 -94 -14 0 -25 5 -25
10 0 6 -14 3 -31 -6 -38 -19 -84 -13 -116 18 -30 28 -29 63 2 93 20 21 34 25
80 25 46 0 55 3 55 18 0 39 -48 54 -104 32 -21 -8 -27 -6 -36 11 -10 17 -7 22
22 34 51 24 126 14 155 -19z m148 -56 c21 -49 39 -90 40 -90 2 0 20 41 41 90
32 77 40 90 60 90 13 0 24 -4 24 -9 0 -19 -119 -294 -135 -311 -22 -25 -65
-33 -99 -20 -41 15 -31 46 13 42 38 -3 61 12 61 38 0 10 -20 66 -45 126 -25
59 -45 113 -45 120 0 8 10 14 24 14 20 0 29 -13 61 -90z"/>
<path d="M2007 1042 c-49 -54 26 -137 77 -86 19 18 21 75 4 92 -18 18 -63 14
-81 -6z"/>
<path d="M1240 1057 c-12 -27 -20 -51 -17 -53 3 -3 23 -4 46 -2 l41 3 -24 50
-24 50 -22 -48z"/>
<path d="M2240 1041 c-15 -30 -14 -31 45 -31 58 0 66 7 37 33 -25 23 -69 22
-82 -2z"/>
<path d="M2477 1042 c-23 -25 -21 -58 3 -82 24 -24 53 -26 74 -4 19 18 21 75
4 92 -18 18 -63 14 -81 -6z"/>
<path d="M3187 1042 c-26 -28 -21 -32 38 -32 59 0 60 1 45 31 -14 25 -61 25
-83 1z"/>
<path d="M3012 628 l3 -63 34 -3 c69 -7 111 19 111 67 0 43 -28 61 -94 61
l-57 0 3 -62z"/>
<path d="M1572 597 c-30 -32 -29 -81 3 -112 30 -30 54 -31 89 -4 20 16 26 29
26 60 0 72 -71 106 -118 56z"/>
<path d="M1865 595 c-16 -15 -25 -36 -25 -55 0 -36 38 -80 69 -80 11 0 32 11
47 24 22 18 28 32 27 62 -2 69 -70 98 -118 49z"/>
<path d="M2162 603 c-32 -27 -37 -64 -12 -96 42 -53 130 -24 130 43 0 60 -72
92 -118 53z"/>
<path d="M2600 600 c-33 -33 -24 -40 45 -40 70 0 82 11 47 43 -25 23 -68 21
-92 -3z"/>
<path d="M3454 505 c-18 -46 60 -66 90 -23 24 34 20 38 -34 38 -36 0 -52 -4
-56 -15z"/>
</g>
</svg>
