<?xml version="1.0" standalone="no"?>
<!DOCTYPE svg PUBLIC "-//W3C//DTD SVG 20010904//EN"
 "http://www.w3.org/TR/2001/REC-SVG-20010904/DTD/svg10.dtd">
<svg version="1.0" xmlns="http://www.w3.org/2000/svg"
 width="289.000000pt" height="289.000000pt" viewBox="0 0 289.000000 289.000000"
 preserveAspectRatio="xMidYMid meet">

<g transform="translate(0.000000,289.000000) scale(0.100000,-0.100000)"
fill="#000000" stroke="none">
<path d="M183 2833 c-31 -6 -91 -76 -98 -115 -3 -18 -4 -585 -3 -1260 3 -1221
3 -1227 24 -1254 11 -15 33 -37 48 -48 27 -21 33 -21 1259 -24 819 -2 1244 1
1267 7 20 6 49 24 65 41 l30 31 3 1263 2 1263 -23 34 c-49 74 51 69 -1322 68
-676 -1 -1240 -4 -1252 -6z m2108 -442 l29 -29 0 -512 0 -512 -28 -28 c-23
-23 -41 -29 -93 -35 -35 -3 -407 -5 -827 -3 l-764 3 -29 33 -29 32 0 511 0
511 29 29 29 29 827 0 827 0 29 -29z m-1586 -1616 c26 -47 50 -85 54 -85 3 0
28 38 55 85 39 69 53 85 72 85 13 0 24 -2 24 -5 0 -3 -30 -60 -66 -125 l-66
-119 4 -83 3 -83 -27 -3 -28 -3 0 97 0 97 -47 81 c-25 45 -55 96 -65 114 l-20
32 30 0 c26 0 34 -9 77 -85z m1612 38 c-10 -65 -56 -275 -62 -281 -13 -14 -13
14 0 154 8 82 15 152 15 157 0 4 12 7 26 7 25 0 26 -2 21 -37z m-232 16 c88
-25 139 -128 115 -230 -23 -96 -106 -147 -218 -136 -120 12 -186 100 -168 221
18 120 135 182 271 145z m-1015 -154 c31 -77 62 -150 68 -162 12 -22 11 -23
-17 -23 -26 0 -32 6 -47 45 l-17 45 -63 0 -62 0 -18 -45 c-14 -38 -21 -45 -44
-45 l-27 0 66 165 c84 211 84 211 161 20z m150 63 l0 -79 83 3 82 3 0 75 c1
74 1 75 28 77 l27 2 0 -165 0 -164 -25 0 c-24 0 -25 2 -25 75 l0 75 -85 0 -85
0 0 -75 0 -75 -27 0 -28 0 2 158 c1 86 2 160 2 163 1 4 12 7 26 7 25 0 25 -2
25 -80z m508 53 c45 -32 64 -74 64 -142 0 -75 -23 -117 -82 -147 -79 -41 -182
-20 -227 47 -58 87 -31 208 57 254 49 25 144 20 188 -12z m536 -314 c14 -22
-5 -41 -33 -32 -23 7 -27 25 -9 43 15 15 28 11 42 -11z"/>
<path d="M726 2258 c5 -8 2 -9 -9 -5 -15 5 -17 -2 -17 -51 0 -53 2 -58 33 -79
17 -12 55 -32 82 -45 28 -13 52 -27 53 -31 2 -4 10 -3 18 4 11 9 14 8 14 -3 0
-14 128 -83 137 -74 3 3 -10 12 -28 20 -19 8 -27 15 -19 15 9 1 27 -7 40 -16
39 -28 93 -44 101 -31 5 7 14 5 30 -6 l24 -17 -30 7 c-44 10 -20 -11 35 -30
25 -8 36 -15 25 -16 -11 0 -49 14 -83 31 -35 17 -65 29 -67 27 -9 -9 136 -68
172 -71 22 -1 40 -7 40 -14 0 -8 -8 -9 -24 -2 -48 18 -36 8 31 -27 37 -19 70
-33 73 -30 3 2 -15 13 -39 24 -23 11 -35 21 -26 21 9 1 20 -3 23 -9 3 -5 14
-10 23 -10 15 1 15 2 -2 15 -11 8 -14 15 -7 15 7 0 9 4 6 10 -3 6 1 7 10 3 13
-5 14 -7 3 -14 -11 -7 -11 -9 1 -9 7 0 11 -6 7 -15 -3 -8 3 -20 14 -28 11 -8
17 -16 14 -19 -3 -4 10 -6 30 -5 34 1 41 16 8 18 -10 0 -12 3 -5 6 7 2 22 -2
33 -10 18 -12 18 -15 5 -20 -8 -4 -23 -4 -32 0 -14 5 -16 3 -6 -7 10 -10 18
-10 42 0 17 7 28 16 25 21 -4 8 4 10 31 9 13 -1 66 32 61 37 -3 3 -17 -2 -31
-11 -14 -9 -25 -12 -25 -6 0 16 56 40 67 29 8 -8 20 -6 39 5 33 17 25 22 -9 5
-21 -10 -21 -10 -3 5 11 9 27 17 35 18 9 0 21 2 27 2 7 1 39 14 73 30 51 25
59 32 48 44 -10 13 -8 14 12 7 18 -5 42 1 92 25 37 19 67 38 66 44 -1 6 12 12
30 12 18 1 42 10 55 19 l23 16 -30 -7 c-39 -9 -27 4 14 16 19 5 29 5 26 -1 -9
-13 6 -11 35 7 l25 15 -25 -6 c-24 -6 -25 -6 -5 10 11 9 28 14 38 11 15 -4 17
4 17 61 0 44 -3 62 -11 57 -6 -3 -16 0 -21 7 -7 11 -11 11 -15 2 -4 -10 -151
-12 -696 -11 l-692 3 685 5 685 5 -693 3 c-527 1 -691 -1 -686 -10z m714 -38
c-399 -3 -720 -7 -713 -10 8 -4 7 -9 -3 -18 -12 -11 -14 -9 -14 13 l0 25 728
-2 727 -3 -725 -5z m-257 -17 c-13 -2 -33 -2 -45 0 -13 2 -3 4 22 4 25 0 35
-2 23 -4z m-453 -37 c0 -3 -4 -8 -10 -11 -5 -3 -10 -1 -10 4 0 6 5 11 10 11 6
0 10 -2 10 -4z m35 -36 c-3 -5 1 -10 9 -10 9 0 16 5 16 10 0 6 5 10 11 10 8 0
7 -6 -2 -17 -13 -15 -11 -16 15 -9 25 6 27 5 13 -8 -13 -14 -18 -14 -46 0 -17
9 -29 20 -26 25 4 5 8 9 11 9 3 0 2 -4 -1 -10z m1305 -16 c0 -2 -14 -4 -31 -4
-16 0 -28 4 -25 9 5 8 56 3 56 -5z m-1200 -14 c-13 -9 -13 -11 0 -20 17 -11 1
-14 -24 -4 -21 8 -20 21 2 27 30 8 37 7 22 -3z m103 -57 c2 7 12 5 28 -7 l24
-17 -27 7 c-17 4 -28 2 -28 -4 0 -6 -12 -4 -30 4 -38 20 -38 25 -1 14 20 -5
31 -5 34 3z m953 -15 c4 -5 -6 -10 -71 -33 -12 -4 -9 1 9 13 25 18 26 21 10
25 -11 3 -4 4 14 3 17 -2 35 -5 38 -8z m-189 -34 c-3 -3 -12 -4 -19 -1 -8 3
-5 6 6 6 11 1 17 -2 13 -5z m70 0 c-3 -3 -12 -4 -19 -1 -8 3 -5 6 6 6 11 1 17
-2 13 -5z m-57 -49 c0 -7 -10 -15 -22 -18 -31 -9 -36 1 -7 12 l24 10 -27 0
c-16 1 -28 -4 -28 -11 0 -6 -3 -8 -6 -5 -4 4 -2 13 5 20 13 17 61 10 61 -8z
m40 10 c0 -2 -6 -5 -13 -8 -8 -3 -14 1 -14 8 0 7 6 11 14 8 7 -3 13 -6 13 -8z
m-480 -75 c0 -5 -4 -10 -10 -10 -5 0 -10 5 -10 10 0 6 5 10 10 10 6 0 10 -4
10 -10z m238 1 c11 -6 9 -9 -5 -13 -12 -3 -20 0 -20 8 0 16 6 17 25 5z"/>
<path d="M1965 813 c-57 -15 -95 -80 -95 -165 0 -104 48 -160 139 -161 39 -1
57 5 85 26 74 57 76 208 4 274 -25 23 -94 37 -133 26z"/>
<path d="M980 715 c-7 -16 -18 -47 -26 -67 l-13 -38 51 0 c48 0 50 1 44 24 -3
13 -14 43 -25 67 l-19 44 -12 -30z"/>
<path d="M1572 785 c-45 -20 -65 -71 -60 -150 4 -71 27 -109 76 -125 84 -29
152 36 152 146 0 105 -82 168 -168 129z"/>
</g>
</svg>
